<svg version="1" xmlns="http://www.w3.org/2000/svg" width="1157.333" height="1157.333" viewBox="0 0 868.000000 868.000000"><path d="M602.9 3.2c-.7 1.3-1.5 2.5-1.8 2.8-.9.7-17.6 21.2-24.1 29.5-3 3.8-5.9 7.3-6.4 7.7-.6.4-.4 1.4.5 2.5.9 1 4.4 6.5 7.9 12.3 3.5 5.8 6.6 10.7 6.9 11 .3.3 1.5 2.1 2.5 4 1.1 1.9 3.6 6 5.5 9 2 3 4.5 7.2 5.6 9.3 1.1 2 2.3 3.7 2.7 3.7.5 0 .8.4.8.9s6.3 11 14 23.4c7.7 12.4 14 23 14 23.6 0 .6.4 1.1.8 1.1.5 0 1.5 1.2 2.3 2.7 1.2 2.4 8 13.5 13.7 22.3.9 1.4 1.6 2.8 1.5 3.1-.1.4.7 1.5 1.7 2.4 2.3 2.1 2.7 4 .6 3.2-.7-.3-14.9-9.6-31.5-20.6-16.7-11.1-30.4-20.1-30.7-20.1-.4 0-9.5-6.2-10.9-7.5-.7-.6-2.8-1.9-4.8-3s-3.7-2.3-3.7-2.7c0-.5-.6-.8-1.3-.8-.8 0-2.2-.9-3.2-2s-2.2-2-2.7-2c-.8 0-6.4-3.6-7.8-5-.7-.7-4.3-2.9-6-3.7-.8-.4-1.7-.9-2-1.2-.3-.3-3-2.3-6.2-4.3-4.2-2.8-5.9-3.4-6.6-2.5-.5.7-3.3 5.7-6.2 11.2-2.9 5.5-6.6 12.5-8.3 15.5-9.8 18-13 23.9-14.5 27-.9 1.9-1.9 3.7-2.2 4-1 1-3 5-3 6 0 .5 10.2 7.7 22.8 15.9 12.5 8.3 23.2 15.3 23.7 15.8.6.4 5.5 3.7 11 7.3 5.5 3.6 10.2 6.8 10.3 7.2.2.5.8.8 1.3.8.7 0 33 21 35.2 23 .4.4-30.9.6-69.7.6-46.6-.1-70.2.2-69.9.9.9 1.6 9.7 15 10.3 15.5.3.3 3.2 4.5 6.4 9.5 3.2 4.9 6.3 9.1 6.8 9.3.4.2.8.8.8 1.4 0 .5 2.9 5.2 6.5 10.4s6.5 9.9 6.5 10.4c0 .6.3 1 .8 1 .4 0 2 2.1 3.7 4.8 1.6 2.6 3.2 4.9 3.5 5.2.4.3.9 1.2 1.3 2s1.8 3.1 3.1 5l2.4 3.6-41.4-.1c-42.3 0-43.6.1-40.1 3.7.7.7 9.1 12.1 18.7 25.3 9.6 13.2 17.6 24.2 18 24.5.3.3 2.1 2.7 4 5.5 1.9 2.7 3.9 5.5 4.5 6.2.5.6 2.1 2.8 3.5 4.8s3.4 4.8 4.6 6.2l2 2.5 5-4.8c5.9-5.7 7.1-6.7 13.9-11.4 2.8-1.9 5.2-3.7 5.5-4.1.3-.3 4.6-2.6 9.5-5.1 9.6-4.9 17.9-8 26-9.8 2.8-.7 5.7-1.3 6.5-1.6.8-.2 5.6-1.3 10.5-2.5 5-1.1 9.8-2.3 10.8-2.5.9-.2 2.5-.6 3.5-.8 3-.7 16.6-3.5 19.4-4 1.5-.2 3.1-.7 3.6-1 .5-.3 3.1-.8 5.8-1.2 2.7-.3 5.2-.8 5.5-1 .8-.4 7.7-1.7 9.7-1.7 1.6 0 3.1-3.1 14.7-28.2 4.8-10.5 10.1-21.9 11.8-25.5 1.7-3.6 3.1-6.7 3.2-7 .1-.3 2-4.5 4.3-9.3 2.3-4.9 4.2-9 4.2-9.2 0-.1 1.9-4.2 4.2-9.1 2.3-4.9 4.2-9.1 4.3-9.4.1-.3 1.3-3 2.7-6 7.6-16.2 14.6-31.3 18.5-40 1.4-3 4.2-9.1 6.2-13.5 2.1-4.4 6.6-14.3 10.2-22 3.5-7.7 7.3-16 8.5-18.5l2.1-4.5-2.6-3.5c-1.4-1.9-3.2-4.1-3.9-4.9-.7-.7-5-5.9-9.5-11.5-11.1-13.7-11.1-13.7-12.2-15-.6-.6-4.4-5.2-8.4-10.1-4-5-7.8-9.2-8.2-9.3-.5-.2-.9-.8-.9-1.4 0-.5-.6-1.5-1.3-2.2-.7-.8-2.9-3.3-4.8-5.6-1.8-2.3-3.9-4.7-4.4-5.4-.6-.6-3-3.6-5.5-6.6-2.5-3-4.7-5.7-5-6-.3-.3-1.7-2.1-3.2-4.2-1.5-2-3.4-4.2-4.1-5-.7-.7-8.4-10.1-17.2-20.8-8.8-10.7-16.2-19.7-16.5-20-.3-.3-1.9-2.2-3.4-4.3-3.3-4.3-5-4.6-6.7-1.5z"/><path d="M105.4 172.7c.5 1.8 4 17.2 5.6 24.8.4 2.2 1.5 7.3 2.4 11.2.9 4 1.8 8.5 2.1 10 .5 3.1.4 2.4 4 18.8 1.4 6.6 2.8 13.2 3.2 14.7.3 1.6.8 2.8 1.2 2.8.3 0 1.7 1 3.1 2.3 2.5 2.3 9.7 8.1 39.5 32.2 8.8 7.1 16.2 13.2 16.5 13.5.3.3 7 5.7 15 12 7.9 6.3 15.2 12.2 16 13 .9.8 3.9 3.3 6.8 5.5 2.8 2.1 5.2 4.3 5.2 4.7 0 .4.6.8 1.4.8.8 0 1.6.3 1.8.7.2.5 2.8 2.8 5.8 5.3s6 4.9 6.6 5.5c.6.5 2.6 2.1 4.4 3.5 1.8 1.4 5 3.8 7 5.5 6.4 5.3 12.2 9.9 13.9 11.2 1.3.9 1.3 1.1.1.9-2.2-.4-34.1-10.6-36.5-11.6-2-.9-11.1-4-13-4.5-.5-.1-1.7-.5-2.5-.8-1.4-.5-8.9-3-10-3.2-.3-.1-1.2-.4-2-.8-.8-.3-10.7-3.5-22-7.2-11.3-3.6-21.2-6.9-22-7.2-.8-.3-1.9-.7-2.5-.8-.5-.2-4.6-1.5-9-2.9-11-3.7-10.9-3.7-11.5-3.8-.3 0-2.7-.9-5.5-1.9-6.3-2.4-7.9-2.4-7-.2.4 1 .9 2.7 1.1 3.8.2 1.1 1.8 6.9 3.5 13 1.7 6 3.2 11.9 3.4 13 .3 1.1 2 7.8 4 15 1.9 7.1 3.7 13.9 4 15 .2 1.1 1.4 5.4 2.5 9.5 1.2 4.1 2.2 8 2.4 8.6.3 2 2.8 4.4 4.4 4.4.9 0 4.7 1 8.6 2.1 7 2.1 8.6 2.6 9.6 2.7.3 0 1.9.6 3.5 1.2 1.7.7 4.1 1.4 5.5 1.7 3.4.7 4.3.9 6 1.6 1.3.5 41.2 12.2 45 13.2.8.2 4.7 1.3 8.5 2.5 3.9 1.1 8.1 2.3 9.4 2.6 1.4.3 2.8.7 3.3 1 .4.3 1.6.7 2.5.9 1 .1 5.9 1.5 10.8 3 5 1.4 12.2 3.5 16 4.6 10.8 3 13.8 3.9 32.5 9.4 6.9 2.1 13.1 3.7 13.8 3.8.6 0 1.2.4 1.2.9 0 .4-1.9.8-4.2.9-2.4.1-5.4.2-6.8.4-6.2.6-17.8 1.8-21 2-3.8.3-14.5 1.4-20 2-1.9.3-6.6.7-10.5 1-3.8.3-8.6.8-10.5 1-1.9.3-6.4.7-10 1-3.6.3-8.3.7-10.5 1-2.2.2-6.9.7-10.5 1-3.6.3-8.3.8-10.5 1.1-2.2.2-7.1.7-11 1-9.6.8-11.9 1-20 1.9-3.8.4-8.8.9-11 1.1-2.2.1-4 .3-4 .4 0 .1-2.5.3-5.5.5-10.1.8-14.2 1.6-13.7 2.8.2.7 1.7 5.7 3.2 11.2 1.5 5.5 3.5 12.9 4.5 16.5 1 3.6 3.5 12.8 5.5 20.5 2 7.7 4.2 14.6 4.9 15.2.6.7 3.8 1.5 7.1 1.8 3.3.3 7.1.8 8.5 1 1.4.2 5 .6 8 1 3 .3 7.1.8 9.1 1.1 2 .2 5.4.6 7.5.9 2.1.2 5.3.6 6.9.9 1.7.3 6.1.8 10 1.1 3.8.4 7.8.9 9 1.1 1.1.2 4.1.6 6.7.9 2.6.3 6.5.7 8.5 1 2.1.3 6.3.8 9.3 1.1 9.1.9 11.4 1.2 14 1.8 1.4.2 5.4.7 8.9 1.1 3.6.3 7.9.8 9.5 1 1.7.2 5.4.6 8.1.9 2.8.3 6.1.8 7.5 1 1.4.3 5 .7 8 1 3 .3 6.4.7 7.6 1 1.1.2 5.2.7 9 1 3.8.4 7.8.8 8.9 1.1 1.1.2 3.3.4 4.9.4 1.7.1 2.6.5 2 .9-.7.7-24.7 9.5-28.9 10.6-1 .3-2.3.8-8 2.9-1.6.6-3.4 1.2-4 1.3-.5.1-3.5 1.1-6.5 2.2s-10.2 3.7-16 5.7c-5.8 2-11.2 3.9-12 4.2-.8.3-1.9.7-2.5.9-1.9.6-33 11.4-34.5 12.1-.8.3-1.9.7-2.5.9-6 1.8-19.5 6.8-19.5 7.3 0 .3 4 3 8.8 6 10.3 6.5 19.2 12.1 32.5 20.8 5.3 3.4 9.9 6.3 10.2 6.3.3 0 1.1.5 1.8 1.1.7.5 2.7 1.9 4.6 3 1.8 1.1 3.2 2.1 3 2.3-.2.2-23.6 15.8-51.9 34.6-28.3 18.9-51.6 34.7-51.8 35.2-.2.4-.8.8-1.2.8-.5 0-8.6 5.2-18 11.5-9.5 6.3-17.6 11.5-18 11.5-.5 0-1 .4-1.2.8-.1.5-3.7 3-7.8 5.7s-7.6 5.2-7.8 5.7c-.2.4-1 .8-1.8.8s-1.4.4-1.4 1c0 .5-.4 1-.9 1-1.5 0-13.1 8-13.1 9 0 .6 1 1.1 2.3 1.1 3.1.2 7.6.6 11.7 1.2 1.9.3 6.7.8 10.5 1.2 3.9.4 8.1.8 9.5 1.1 2.5.4 6.2.8 15.5 1.9 2.8.3 6.6.7 8.5 1 1.9.2 6 .7 9 1 3 .3 7.1.7 9 1 1.9.3 5.8.7 8.5 1 5.7.5 12.2 1.2 18 2.1 10.7 1.6 8.9 2.4 32.8-14.4 12.2-8.6 22.8-16.2 23.5-16.9.7-.7 1.7-1.3 2.2-1.3.5 0 1.5-.6 2.2-1.3.7-.6 4.2-3.2 7.8-5.7 3.6-2.4 6.7-4.8 6.8-5.2.2-.4.9-.8 1.6-.8.7 0 2.1-.8 3.2-1.8 1.7-1.6 5.4-4.2 9.2-6.7.9-.6 2.1-1.4 2.6-1.8.6-.4 5.8-4.1 11.6-8.2 5.8-4 13.2-9.3 16.5-11.6 3.3-2.4 10.5-7.4 16-11.3 5.5-3.8 10.3-7.4 10.7-8 1.2-1.7.9.4-.6 5.4-.7 2.5-1.5 4.9-1.6 5.5-.1.5-.4 1.4-.6 2-1.1 3.6-4.8 16.2-5 17.2-.1.7-.9 3.6-1.8 6.5-1.8 5.8-2.3 7.6-5.6 18.8-1.2 4.1-2.8 9.3-3.7 11.5-.8 2.2-1.4 4.1-1.3 4.3.2.2-1.7 6.7-4.7 16.5-.8 2.6-1.6 5.3-1.7 6-.1.7-.7 2.8-1.3 4.7-2.3 7.1-6.5 21.4-6.7 22.4-.1.6-1.2 4.5-2.5 8.6-1.2 4.1-3.3 11.1-4.6 15.5-1.3 4.4-2.7 9.1-3.1 10.5-.5 1.4-.9 2.7-.9 3-.9 3.6-2.8 9.9-3.5 11.5-1.3 3.1-2.1 7.5-1.3 7.5.4 0 2.5-2 4.8-4.4 4.3-4.7 26.4-27.9 41-43.1 5-5.2 14-14.6 20-21 6.1-6.4 13.9-14.7 17.4-18.3 3.5-3.7 12.7-13.4 20.5-21.6 7.7-8.1 16.8-17.6 20.1-21.1 3.3-3.4 9.3-9.7 13.4-14l7.3-7.7 4.7.6c2.5.3 7.8 1 11.6 1.6 29.8 4.4 73.2 6.3 104 4.5 13.2-.8 19-1.2 19-1.5 0-.1 1.8-.3 4-.5 7-.7 12.7-1.4 14.4-1.9.9-.3 3.5-.8 5.7-1 2.3-.3 5.3-1 6.8-1.6 1.5-.5 3-.9 3.4-.9.4.1 1 0 1.5-.1.4-.1 1.2-.4 1.7-.5.6-.1 1.1-.3 1.3-.4.1-.2 1.3-.4 2.7-.7 5.2-.9 28.4-9.7 30.8-11.6.6-.6 1.2-.8 1.2-.5 0 .8 20.3-9.8 26.7-13.9 2.9-1.9 5.8-3.4 6.3-3.4.6 0 1-.5 1-1 0-.6.5-1 1.1-1 .7 0 5.7-3.3 11.3-7.2 5.5-4 11.7-8.4 13.6-9.7 1.9-1.3 3.7-2.6 4-3 .3-.3 3.7-3.1 7.5-6.2 3.9-3.1 11.2-9.6 16.4-14.5l9.4-9-8.9.1c-7.8.1-18.9-1.1-27.7-3-5.4-1.1-20.2-6.9-27.6-10.8-6.8-3.5-11.7-6.6-22.2-13.8-13.2-9.1-33.6-28.6-45.4-43.4-2.2-2.8-4.2-5.2-4.5-5.5-1.8-1.6-10.4-15.7-14-23-5.3-10.5-5.6-11.3-7.6-17.5-1.4-4.5-2.1-7-3.8-14.5-1.9-8-2.8-32-1.3-32 .5 0 .6-.3.3-.8-.2-.4.1-3.8.8-7.5.7-3.7 1.1-6.7.8-6.7-.2 0 0-.6.5-1.3.6-.6 1.3-2.5 1.7-4.2 1.4-5.7 7.8-18.9 12.7-26.1 6.4-9.4 17.7-15.2 33-17 6.8-.8 22.1-1.2 23.2-.7.4.3 4.1.6 8.2.8 4.1.2 7.8.5 8.2.8.4.3 2.8.8 5.3 1.1 2.5.4 5.2.8 6 1 .8.1 3.3.6 5.5 1.1 2.2.4 4.7.9 5.5 1.1.8.1 5.8 1.4 11 2.9 5.2 1.4 10.2 2.7 11 3 .8.2 4.8 1.5 8.8 2.9l7.2 2.5 17.5-8.7c9.6-4.7 17.5-9.1 17.5-9.7-.2-5.1-16.4-14.1-37.5-20.8-12.1-3.8-35.3-9.2-44.5-10.3-1.9-.2-4.6-.6-6-.9-1.4-.3-4.5-.7-7-1-2.5-.2-7-.8-10-1.2-3-.4-15.4-.7-27.5-.7-20-.1-27.1.3-34.5 1.9-3.5.7-10.1 1.7-12.2 1.8-1 .1-1.8.5-1.8 1 0 .4-.4.6-.8.3-1-.6-18.5 3.7-28.2 7-15.6 5.3-31.7 14-41.6 22.4-5.2 4.5-12.1 13.4-15.5 20-1.9 3.6-3.4 6.7-3.4 7-.1.3-.7 2.5-1.4 5-1.8 6.1-2.2 9.2-2.2 18.3l-.1 7.8-4.2-4.4c-2.2-2.4-7.9-8.6-12.6-13.6-4.7-5.1-11-11.8-14-15-3-3.2-10.5-11.2-16.7-17.7-11.7-12.5-12.3-13.2-35-37-25.1-26.4-31.1-32.6-50.2-51.9-22-22.2-27.6-27.5-29-27.5-.6 0-1.1-.4-1.1-.9 0-.4-1.9-2.1-4.2-3.7-2.4-1.6-4.7-3.5-5.1-4.1-.4-.7-1.5-1.3-2.2-1.3-.8 0-1.5-.5-1.5-1 0-.6-.7-1-1.5-1s-1.5-.4-1.5-.8c0-.5-1.2-1.5-2.7-2.3-1.6-.8-3-1.7-3.3-2-.7-.7-15.4-10.3-16-10.4-.3 0-1.6-.8-3-1.7-5.4-3.5-16.1-9.8-16.6-9.8-.3 0-1.8-.8-3.2-1.8-1.5-1-6.7-4-11.7-6.7-4.9-2.6-11.5-6.1-14.5-7.8-3-1.6-11.6-6-19-9.8-7.4-3.8-14.4-7.5-15.5-8.1-1.1-.7-2.2-1.3-2.5-1.3-.3-.1-9.4-4.5-20.3-9.8-11-5.3-20.3-9.7-20.8-9.7s-.9-.5-.9-1.2c0-.6-.3-.8-.6-.5-.4.4-1.9 0-3.3-.8-2.8-1.5-22.1-10.5-22.6-10.5-.2 0-3.6-1.5-7.7-3.4-4-1.8-10.2-4.6-13.8-6.1-3.6-1.5-8-3.4-9.8-4.2-3.1-1.3-3.3-1.3-2.8.4z"/><path d="M762.4 453.6c-1.6.7-4.5 1.5-6.6 1.8-2 .3-4.7 1-6 1.5-1.2.6-4.3 1.5-6.7 2.1-5 1.3-4.9.1-1.2 17 4.3 19.8 5.1 23.3 5.5 23.7.2.2 2.8-.7 5.7-2 5.4-2.4 12.9-9 12.9-11.4 0-.7.4-1.3.9-1.3s1.8-2.4 2.9-5.3c1.5-4 1.9-7.2 1.7-13.7-.3-11.4-1.1-14-3.9-13.8-1.2.1-3.5.7-5.2 1.4zM668.7 455.1c-7.2 1.1-13.6 4.7-20 11.1-5.3 5.3-5.8 6.2-5.6 9.6.5 6.5 3.8 11.8 12.2 18.9 3.6 3 16.4 9.8 21.2 11.3 2.2.6 4.7 1.4 5.5 1.7 3.3 1.3 4.9 1.5 14.2 1.6 5.3.1 9.9-.1 10.3-.5.4-.4.2-2.9-.5-5.5-.6-2.6-1.3-5.5-1.6-6.3-.2-.8-2.5-9.4-5.2-18.9-4.4-16.1-5.1-17.6-7.8-19.1-6.1-3.4-15.5-5-22.7-3.9zM725 522.4c-3.2 1.8-6.9 6.8-7.6 10.3-.5 2.5.5 3.8 8 11.2l8.6 8.4 1.9-4.4c4.7-10.6 5-20.9.6-24.6-3-2.6-7.7-2.9-11.5-.9z"/></svg>