<svg width="129" height="135" viewBox="0 0 129 135" fill="none" xmlns="http://www.w3.org/2000/svg">
<path fill-rule="evenodd" clip-rule="evenodd" d="M1 15.1357L2.29688 14.2871L24.1289 0L25.2266 1.67383L4.6875 15.1123L25.3945 28.2881L24.3203 29.9756L2.30469 15.9678L1 15.1357ZM0 88.1357L1.29688 87.2871L23.1289 73L24.2266 74.6738L3.6875 88.1123L24.3945 101.288L23.3203 102.976L1.30469 88.9678L0 88.1357ZM22.5078 15.6602C53.3398 15.6602 68.6445 33.5889 68.8828 51.1738C69.0039 60.0068 65.3477 68.8535 57.8438 75.5059C50.3438 82.1582 38.9375 86.6602 23.5078 86.6602V88.6602C39.3281 88.6602 51.2383 84.0381 59.1719 77.002C67.1055 69.9668 71.0117 60.5645 70.8828 51.1465C70.625 32.2314 54.1797 13.6602 22.5078 13.6602V15.6602Z" transform="translate(29.2461 16.1631)" fill="white"/>
</svg>
