<svg width="129" height="135" viewBox="0 0 129 135" fill="none" xmlns="http://www.w3.org/2000/svg">
<g clip-path="url(#clip0)">
<path fill-rule="evenodd" clip-rule="evenodd" d="M58.3322 8.05649C57.0431 10.0575 56.59 12.2381 57.1056 14.2362C61.1993 17.7704 63.7501 22.4598 63.7501 27.6688H61.7501C61.7501 23.0155 59.4025 18.7147 55.4415 15.4461L55.3947 15.4627L55.3673 15.3836C55.1642 15.2166 54.9532 15.0526 54.7423 14.8914C50.3556 11.5614 44.254 9.4725 37.4728 9.4725C30.6915 9.4725 24.59 11.5614 20.2032 14.8914C16.1134 17.9998 13.5509 22.1522 13.2306 26.6942C16.0431 26.3084 19.0743 26.3993 22.0431 26.9705C26.0626 27.744 27.9845 29.1112 29.2579 30.6102C29.6525 31.077 30.0079 31.5916 30.3126 32.0321L30.3478 32.0819L30.6915 32.5692C31.0939 33.119 31.4806 33.5428 32.0275 33.868L30.9962 35.5848C30.1212 35.0643 29.5509 34.4012 29.0743 33.7528L28.6681 33.1756L28.5822 33.0526L28.547 33.0008L28.5157 32.9579C28.2697 32.6024 28.0392 32.2684 27.7267 31.9041C26.797 30.8075 25.3087 29.6346 21.6603 28.9325C17.4064 28.1141 13.0782 28.3768 9.62903 29.5995C6.172 30.8241 3.7345 32.953 2.93762 35.7928L2.76184 35.744C2.22669 37.2039 1.99231 38.3104 2.00012 39.3797C2.00794 40.5448 2.29309 41.7508 2.91028 43.4129L1.03137 44.1082C0.382936 42.3524 0.00793591 40.8924 0.000123415 39.3905C-0.00768909 37.8836 0.355592 36.4188 1.03919 34.6493L1.18372 34.7049C2.3634 31.325 5.33606 29.0028 8.96497 27.7166C9.68372 27.4618 10.4337 27.2459 11.2072 27.0682C11.4142 21.6317 14.3986 16.7889 18.9923 13.2987C23.7579 9.68051 30.2931 7.4725 37.4728 7.4725C44.1329 7.4725 50.2423 9.37289 54.8947 12.537C54.9025 10.6082 55.5392 8.69028 56.6486 6.97153C58.3204 4.38071 61.0861 2.19418 64.5275 0.975432C67.9689 -0.243318 71.5001 -0.289217 74.4454 0.665862C76.8673 1.45102 78.9259 2.93149 80.1486 5.01645L80.34 4.94125C85.2384 3.02133 91.3009 2.7059 97.3829 4.39242C103.465 6.07797 108.488 9.46664 111.676 13.6278C114.734 17.6151 116.141 22.3631 115.07 26.9754L115.555 27.1092C120.082 28.3641 123.828 30.8885 126.215 34.0008C128.602 37.1141 129.66 40.8719 128.641 44.5028L126.715 43.9686C127.527 41.077 126.723 37.9549 124.625 35.2186C122.527 32.4813 119.164 30.1844 115.016 29.035C110.867 27.8846 106.793 28.119 103.57 29.3817C100.352 30.6444 98.0392 32.9022 97.2267 35.7938L95.3009 35.2596C96.3204 31.6288 99.1798 28.9579 102.844 27.5213C105.848 26.3436 109.422 25.9705 113.109 26.5692C114.035 22.6463 112.875 18.4842 110.086 14.8455C107.184 11.0594 102.547 7.89926 96.8439 6.31821C91.1368 4.73617 85.5236 5.05453 81.0704 6.80063C76.6134 8.54672 73.3751 11.6893 72.2345 15.7498L70.3087 15.2157C71.465 11.1004 74.422 7.89926 78.3243 5.8602C77.3751 4.34653 75.8048 3.20492 73.8322 2.56528C71.34 1.75766 68.2618 1.77328 65.2032 2.85824C62.1407 3.94223 59.7462 5.86606 58.3322 8.05649ZM42.3009 45.0428H44.004H46.5626V43.0428H44.004H42.3009V45.0428ZM32.0782 45.0428H30.3751V43.0428H32.0782H34.6368V45.0428H32.0782ZM19.0118 45.0428H20.715H23.2736V43.0428H20.715H19.0118V45.0428ZM9.35559 45.0428H7.65247V43.0428H9.35559H11.9142V45.0428H9.35559ZM55.3673 45.0428H57.0704H59.629V43.0428H57.0704H55.3673V45.0428ZM70.1329 45.0428H68.4298V43.0428H70.1329H72.6915V45.0428H70.1329ZM81.4962 45.0428H83.1993H85.7579V43.0428H83.1993H81.4962V45.0428ZM95.6954 45.0428H93.9923V43.0428H95.6954H98.254V45.0428H95.6954ZM107.055 45.0428H108.758H111.317V43.0428H108.758H107.055V45.0428ZM120.121 45.0428H118.418V43.0428H120.121H122.68V45.0428H120.121Z" transform="translate(-0.0117188 45)" fill="white"/>
</g>
<defs>
<clipPath id="clip0">
<rect width="129" height="135" fill="white"/>
</clipPath>
</defs>
</svg>
