<svg width="129" height="135" viewBox="0 0 129 135" fill="none" xmlns="http://www.w3.org/2000/svg">
<path fill-rule="evenodd" clip-rule="evenodd" d="M5.20762 0L5.40684 2.93164C5.64121 6.32422 6.31309 8.64062 7.60606 10.6328C8.81699 12.5059 10.6256 14.168 13.3326 16.1621C17.1842 13.624 21.7936 12.1465 26.7506 12.1465C31.86 12.1465 36.6061 13.7168 40.5279 16.4004C43.4147 14.2998 45.317 12.5801 46.5787 10.6328C47.8717 8.64062 48.5436 6.32422 48.7779 2.93164L48.9772 0L50.6061 2.44727C53.0006 6.0459 54.2154 9.12109 54.1842 12.4961C54.149 15.833 52.8951 19.3203 50.6686 23.7393L50.1647 24.7373L49.2272 24.127L46.6959 22.4766C49.5084 26.4551 51.1647 31.3125 51.1647 36.5557H49.774V37.166H3.34043V36.5557H2.34043C2.34043 31.6562 3.78574 27.0947 6.27012 23.2715L4.95762 24.127L4.02012 24.7373L3.51621 23.7393C1.28965 19.3203 0.0357442 15.833 0.000587905 12.4961C-0.0306621 9.12109 1.18418 6.0459 3.57871 2.44727L5.20762 0ZM48.7193 32.0928C48.9225 33.0947 49.0592 34.1211 49.1217 35.166H30.0787C31.2584 34.4336 32.1998 33.3633 32.7662 32.0928H48.7193ZM4.3834 35.166H22.6412C21.4615 34.4336 20.5162 33.3633 19.9498 32.0928H4.78574C4.58262 33.0947 4.4459 34.1201 4.3834 35.166ZM19.3639 29.3262C19.3639 29.585 19.3795 29.8408 19.4068 30.0928H5.28574C6.62168 25.6533 9.29356 21.7939 12.8404 18.9844L13.9303 18.2744L15.1529 17.4775L15.0787 17.4229C18.4772 15.3438 22.4732 14.1465 26.7506 14.1465C36.8834 14.1465 45.4459 20.8672 48.2193 30.0928H33.3092C33.3365 29.8408 33.3522 29.585 33.3522 29.3262C33.3522 25.5186 30.2232 22.4316 26.36 22.4316C22.4967 22.4316 19.3639 25.5186 19.3639 29.3262ZM4.80918 21.8359L11.6295 17.3867C9.12168 15.4971 7.24668 13.7568 5.92637 11.7207C4.84043 10.0459 4.16074 8.21582 3.76231 6.0127C2.53184 8.33594 1.98106 10.3672 2.00059 12.4766C2.02793 15.1104 2.9459 17.9893 4.80918 21.8359ZM42.5553 17.3867L49.3756 21.8359C51.2389 17.9893 52.1568 15.1104 52.1842 12.4766C52.2037 10.3672 51.6529 8.33594 50.4225 6.0127C50.024 8.21582 49.3443 10.0459 48.2584 11.7207C46.9381 13.7568 45.0631 15.4971 42.5553 17.3867ZM37.274 47.0576C28.1022 46.4629 15.1725 46.2812 8.14121 46.2266C6.50449 46.2129 5.16465 47.5391 5.16465 49.2021V60.9736C5.16465 62.6309 6.5084 63.9736 8.16465 63.9736H47.0162C48.8561 63.9736 49.9107 62.4834 49.5514 61.0947C48.8053 58.2041 47.5553 54.7383 45.5357 51.9678C43.5436 49.2363 40.899 47.293 37.274 47.0576ZM8.15684 44.2266C5.39512 44.2041 3.16465 46.4404 3.16465 49.2021V60.9736C3.16465 63.7354 5.40293 65.9736 8.16465 65.9736H47.0162C49.9576 65.9736 52.2232 63.4434 51.4889 60.5947C49.9381 54.5889 46.1647 45.6299 37.4029 45.0615C28.1686 44.4629 15.1842 44.2812 8.15684 44.2266ZM18.6217 133.377H37.0279V132.376H38.0279V66.6992H36.0279V131.377H19.6217V66.6992H17.6217V132.376H18.6217V133.377ZM26.36 34.2197C29.1451 34.2197 31.3522 32.002 31.3522 29.3262C31.3522 26.6504 29.1451 24.4316 26.36 24.4316C23.5709 24.4316 21.3639 26.6504 21.3639 29.3262C21.3639 32.002 23.5709 34.2197 26.36 34.2197Z" transform="translate(37 1)" fill="black"/>
</svg>
