<svg width="40" height="40" viewBox="0 0 40 40" fill="none" xmlns="http://www.w3.org/2000/svg">
<path fill-rule="evenodd" clip-rule="evenodd" d="M20 38C29.9414 38 38 29.9414 38 20C38 16.6084 37.0625 13.4346 35.4297 10.7266L26.625 17.6045C27.4922 20.1436 28.2344 22.7695 28.543 25.043C28.7148 26.3047 28.7617 27.5078 28.5977 28.5498C28.4375 29.5869 28.0508 30.5752 27.2578 31.252C25.0312 33.1465 22.7461 34.4941 20.3047 34.6396C17.8086 34.7881 15.3906 33.6719 12.9453 31.1924C12.3867 30.626 12.0312 29.9287 11.8242 29.1689L7.26953 32.7266C10.5273 35.9854 15.0273 38 20 38ZM5.93359 31.2324C3.47266 28.1533 2 24.249 2 20C2 10.0586 10.0586 2 20 2C25.832 2 31.0156 4.77246 34.3047 9.07031L25.918 15.6211C25.0312 13.2383 24.0859 11.0049 23.3281 9.29785C22.8867 8.30762 22.5078 7.49316 22.2422 6.92383L21.9258 6.26465L21.8398 6.08984L21.8164 6.04395C21.8086 6.02832 21.8086 6.02832 20.9141 6.4707L21.8086 6.02832L21.0117 4.4082L20.0625 5.94629L20.0273 6.00586L19.9258 6.17188L19.5508 6.80273C19.2305 7.34668 18.7773 8.12695 18.2539 9.07812C17.1992 10.9775 15.8438 13.5664 14.6289 16.3115C13.4219 19.0459 12.332 21.9834 11.8477 24.5684C11.7031 25.3389 11.6094 26.0938 11.5859 26.8154L5.93359 31.2324ZM13.6055 27.7754C13.6133 27.8467 13.6211 27.917 13.6289 27.9863C13.7305 28.8242 13.9922 29.4053 14.3672 29.7881C16.5664 32.0137 18.4531 32.7461 20.1875 32.6426C21.9727 32.5361 23.8438 31.5312 25.9609 29.7285C26.25 29.4814 26.5 29.0254 26.6211 28.2432C26.7422 27.4668 26.7188 26.4756 26.5586 25.3125C26.3008 23.4062 25.6992 21.1709 24.9531 18.9111L13.6055 27.7754ZM24.2617 16.915L13.7852 25.0977C13.793 25.0439 13.8047 24.9902 13.8164 24.9355C14.2578 22.5762 15.2734 19.8027 16.457 17.1201C17.6406 14.4482 18.9688 11.915 20 10.0459C20.3008 9.50391 20.5781 9.01758 20.8164 8.60156C21.0195 9.03711 21.25 9.54492 21.5 10.1104C22.3125 11.9375 23.3398 14.3623 24.2617 16.915ZM20 40C31.0469 40 40 31.0459 40 20C40 8.9541 31.0469 0 20 0C8.95312 0 0 8.9541 0 20C0 31.0459 8.95312 40 20 40ZM23.5312 25.1562C23.7266 26.7393 23.6406 27.5283 23.3555 28.002C23.1055 28.4219 22.543 28.8291 21.0117 29.1494L21.418 31.1074C23.082 30.7598 24.3711 30.1992 25.0742 29.0283C25.7422 27.9102 25.7109 26.4844 25.5156 24.9102L23.5312 25.1562Z" fill="black"/>
</svg>
