<svg width="15" height="32" viewBox="0 0 15 32" fill="none" xmlns="http://www.w3.org/2000/svg">
<path d="M3.22846 6.19738C3.22846 7.00379 3.22846 10.6032 3.22846 10.6032H-6.35864e-08V15.9906H3.22846V32H9.86041V15.991H14.3107C14.3107 15.991 14.7275 13.4078 14.9296 10.5833C14.3503 10.5833 9.88548 10.5833 9.88548 10.5833C9.88548 10.5833 9.88548 7.44907 9.88548 6.89971C9.88548 6.34916 10.6086 5.60859 11.3232 5.60859C12.0366 5.60859 13.5421 5.60859 14.9366 5.60859C14.9366 4.87508 14.9366 2.34067 14.9366 1.9248e-08C13.075 1.9248e-08 10.9572 1.9248e-08 10.0237 1.9248e-08C3.06453 -0.000371977 3.22846 5.39238 3.22846 6.19738Z" fill="white"/>
</svg>
