<svg width="74" height="87" viewBox="0 0 74 87" fill="none" xmlns="http://www.w3.org/2000/svg">
<path fill-rule="evenodd" clip-rule="evenodd" d="M24.6006 3.65625H27.9707V5.06641H24.6006V8.72656H22.917V0H28.5547V1.41406H24.6006V3.65625ZM36.6025 8.72656H34.7363L33.1162 5.46289H31.6553V8.72656H29.9717V0H33.1895C35.2559 0 36.2617 1.08594 36.2617 2.70898C36.2617 3.91992 35.6738 4.69922 34.7959 5.13867L36.6025 8.72656ZM33.1895 1.41406H31.6553V4.05273H33.1504C34.1182 4.05273 34.5957 3.57812 34.5957 2.74414C34.5957 1.97266 34.1738 1.41406 33.1895 1.41406ZM39.2959 7.3125H43.2842V8.72656H37.6123V0H43.2627V1.41406H39.2959V3.65625H42.7178V5.06641H39.2959V7.3125ZM46.3857 7.3125H50.374V8.72656H44.7021V0H50.3525V1.41406H46.3857V3.65625H49.8076V5.06641H46.3857V7.3125ZM20.0137 14H26.917V15.4141H24.3008V22.7266H22.6309V15.4141H20.0137V14ZM34.7158 22.7266H32.8496L31.2295 19.4629H29.7686V22.7266H28.085V14H31.3027C33.3691 14 34.375 15.0859 34.375 16.709C34.375 17.9199 33.7871 18.6992 32.9092 19.1387L34.7158 22.7266ZM31.3027 15.4141H29.7686V18.0527H31.2637C32.2314 18.0527 32.709 17.5781 32.709 16.7441C32.709 15.9727 32.2871 15.4141 31.3027 15.4141ZM35.7256 14H37.4092V22.7266H35.7256V14ZM40.8584 20.8691L40.2236 22.7266H38.417L41.6338 14H43.4199L46.6367 22.7266H44.834L44.1992 20.8691H40.8584ZM42.5801 16.1211H42.4775L41.3271 19.4883H43.7305L42.5801 16.1211ZM49.3389 21.3125H53.0371V22.7266H47.6553V14H49.3389V21.3125ZM2 18.0371C2 15.8281 3.79102 14.0371 6 14.0371H8.49707V12.0371H6C2.68652 12.0371 0 14.7227 0 18.0371V73.168C0 76.4805 2.68652 79.168 6 79.168H8.49707V77.168H6C3.79102 77.168 2 75.377 2 73.168V18.0371ZM64.3506 14.0371H67.2227C69.4316 14.0371 71.2227 15.8281 71.2227 18.0371V73.168C71.2227 75.377 69.4316 77.168 67.2227 77.168H64.3506V79.168H67.2227C70.5361 79.168 73.2227 76.4805 73.2227 73.168V18.0371C73.2227 14.7227 70.5361 12.0371 67.2227 12.0371H64.3506V14.0371ZM20.3818 48.7422H22.71C26.2881 48.7422 28.7568 50.3516 28.7568 53.9609C28.7568 57.2734 26.2881 59.1172 22.9912 59.1172C19.8193 59.1172 17.8662 57.3203 17.8662 54.5078H12.9287C12.9287 60.2891 17.46 63.1641 22.9443 63.1641C28.9131 63.1641 33.7256 59.7891 33.7256 53.9922C33.7256 50.8672 32.2256 47.7734 28.2568 46.4297C31.5693 44.8359 33.1006 41.6953 33.1006 39.1797C33.1006 33.3672 28.9131 30.2891 23.0381 30.2891C17.0693 30.2891 13.2725 33.8516 13.2725 38.7422H18.0068C18.0068 36.0391 20.1162 34.1641 23.0693 34.1641C26.2412 34.1641 28.3037 36.1797 28.3037 39.1953C28.3037 42.0703 26.335 44.4141 22.71 44.4141H20.3818V48.7422ZM60.5225 44.6016C60.5225 35.3516 56.46 30.2891 49.6631 30.2891C42.8193 30.2891 38.71 35.3516 38.71 44.6016V48.3828C38.71 57.8203 42.8506 63.1641 49.71 63.1641C56.5068 63.1641 60.5225 57.8203 60.5225 48.3828V44.6016ZM55.6318 49.1484C55.6318 54.9297 53.585 58.9297 49.71 58.9297C45.7568 58.9297 43.6006 54.9297 43.6006 49.1484V43.8203C43.6006 38.1641 45.71 34.5078 49.6631 34.5078C53.5693 34.5078 55.6318 38.1641 55.6318 43.8203V49.1484ZM23.8027 78.5273C23.8027 83.0723 21.21 85.8066 16.8926 85.8066H11.9561V71.2617H16.9561C21.21 71.2617 23.8027 73.9883 23.8027 78.5273ZM20.9971 78.5273C20.9971 75.2305 19.5557 73.6895 16.7998 73.6895H14.7617V83.377H16.7568C19.5557 83.377 20.9971 81.8223 20.9971 78.5273ZM28.1084 82.7109L27.0498 85.8066H24.0391L29.4014 71.2617H32.377L37.7393 85.8066H34.7344L33.6768 82.7109H28.1084ZM30.9775 74.7988H30.8076L28.8896 80.4082H32.8955L30.9775 74.7988ZM35.8887 71.2617H38.9639L42.6504 77.625H42.8203L46.5137 71.2617H49.5889L44.1416 80.125V85.8066H41.3359V80.125L35.8887 71.2617ZM60.7344 75.3945H58.0645C57.9434 74.166 57.0771 73.4336 55.5498 73.4336C54.0586 73.4336 53.0352 74.1309 53.0352 75.1465C53.0352 76.1328 54.1084 76.6172 55.7842 77.1641L56.5303 77.4043C59.2646 78.2988 60.7988 79.5 60.7988 81.752C60.7988 84.3867 58.6816 86.0273 55.4648 86.0273C52.4883 86.0273 49.9395 84.5 49.8896 81.4023H52.6309C52.7158 82.8945 53.8662 83.6621 55.4648 83.6621C57.1475 83.6621 58.085 82.8027 58.085 81.7734C58.085 80.7578 57.2617 80.1523 55.1094 79.4922L54.3428 79.2734C51.9775 78.5625 50.3008 77.2422 50.3008 75.1465C50.3008 72.7031 52.5527 71.0625 55.5645 71.0625C58.5898 71.0625 60.6846 72.7891 60.7344 75.3945Z" fill="#262E41"/>
</svg>
