<svg width="91" height="75" viewBox="0 0 91 75" fill="none" xmlns="http://www.w3.org/2000/svg">
<path fill-rule="evenodd" clip-rule="evenodd" d="M9.29785 10.2969C9.54297 10.3516 9.81152 10.4043 10.1016 10.4551C12.3711 10.8496 15.9316 11.1035 19.9346 11.1035V11.8457V13.1035V15.0898V17.0918C19.2881 17.0664 18.6201 17.0488 17.9346 17.0391C17.4795 17.0332 17.0176 17.0293 16.5488 17.0293C12.5459 17.0293 8.98535 17.2832 6.71582 17.6777C6.42578 17.7285 6.15723 17.7812 5.91211 17.8359C4.78516 18.0879 4.13672 18.3809 4.13672 18.6953C4.13672 19.0098 4.78516 19.3027 5.91211 19.5547C6.15723 19.6094 6.42578 19.6621 6.71582 19.7129C8.98535 20.1074 12.5459 20.3613 16.5488 20.3613C17.0176 20.3613 17.4795 20.3574 17.9346 20.3516C18.6201 20.3418 19.2881 20.3242 19.9346 20.2988V22.3008V24.6152V26.625C19.3115 26.5605 18.6426 26.5059 17.9346 26.457C16.2715 26.3457 14.3965 26.2832 12.4121 26.2832C8.40918 26.2832 4.84863 26.5371 2.5791 26.9316C2.28906 26.9824 2.02051 27.0352 1.77539 27.0898C0.648438 27.3418 0 27.6348 0 27.9492C0 28.2637 0.648438 28.5566 1.77539 28.8086C2.02051 28.8633 2.28906 28.916 2.5791 28.9668C4.84863 29.3613 8.40918 29.6152 12.4121 29.6152C14.3965 29.6152 16.2715 29.5527 17.9346 29.4414C18.6426 29.3926 19.3115 29.3379 19.9346 29.2734V31.2832V36.0938C19.9346 38.4316 21.542 40.3984 23.7129 40.9434C24.0674 41.0332 24.4355 41.084 24.8154 41.0918L24.9346 41.0938H33.1074H35.1074H37.1074H39.1074H60.4443C60.79 41.0938 61.127 41.0586 61.4521 40.9922C62.5605 40.7656 63.5342 40.1719 64.2432 39.3457C64.9785 38.4863 65.4277 37.377 65.4443 36.1641C65.4609 37.377 65.9102 38.4863 66.6455 39.3438C67.3096 40.1191 68.207 40.6875 69.2295 40.9434C69.6182 41.041 70.0244 41.0918 70.4434 41.0918H70.4619H72.4619H74.4619H82.7539H84.7539H85.5771C85.9873 41.0918 86.3809 41.0449 86.7539 40.957L86.8086 40.9434C90.0068 40.1504 91.6953 36.3359 89.7725 33.3711L80.6494 19.3086C79.7275 17.8867 78.1494 17.0293 76.4551 17.0293H70.4434C69.3184 17.0293 68.2803 17.4004 67.4443 18.0273C66.2539 18.9219 65.4756 20.334 65.4443 21.9297V17.1289V5C65.4443 4.6543 65.4092 4.31836 65.3428 3.99219C64.877 1.71484 62.8613 0 60.4443 0H24.9346C22.1729 0 19.9346 2.23828 19.9346 5V5.55273V5.77148V7.77148C15.9316 7.77148 12.3711 8.02539 10.1016 8.41992C9.81152 8.4707 9.54297 8.52344 9.29785 8.57812C8.1709 8.83008 7.52246 9.12305 7.52246 9.4375C7.52246 9.75195 8.1709 10.0449 9.29785 10.2969ZM21.9346 20.2988V20.1973C23.6846 20.084 25.2061 19.916 26.3809 19.7129C26.6709 19.6621 26.9385 19.6094 27.1846 19.5547C28.3115 19.3027 28.96 19.0098 28.96 18.6953C28.96 18.3809 28.3115 18.0879 27.1846 17.8359C26.9385 17.7812 26.6709 17.7285 26.3809 17.6777C25.2061 17.4746 23.6846 17.3066 21.9346 17.1934V17.0918V11.8457V11.1035V11.082C25.1104 11.0117 27.8818 10.7812 29.7656 10.4551C30.0547 10.4043 30.3232 10.3516 30.5693 10.2969C31.6973 10.0449 32.3457 9.75195 32.3457 9.4375C32.3457 9.12305 31.6973 8.83008 30.5693 8.57812C30.3232 8.52344 30.0547 8.4707 29.7656 8.41992C27.8818 8.09375 25.1104 7.86328 21.9346 7.79297V7.77148V5.55273V5C21.9355 3.3418 23.2783 2 24.9346 2H60.4443C60.5479 2 60.6504 2.00586 60.751 2.01562C62.1133 2.1543 63.2061 3.20312 63.4102 4.54492C63.4326 4.69336 63.4443 4.8457 63.4443 5V21.9297V36.0938C63.4443 37.4355 62.5625 38.5723 61.3467 38.9551C61.0615 39.0449 60.7588 39.0938 60.4443 39.0938H24.9346C24.8311 39.0938 24.7285 39.0879 24.6279 39.0781C23.2578 38.9395 22.1592 37.877 21.9648 36.5234C21.9453 36.3828 21.9346 36.2402 21.9346 36.0938V29.2734V29.0176L22.2441 28.9668C22.5332 28.916 22.8008 28.8633 23.0469 28.8086C24.1738 28.5566 24.8232 28.2637 24.8232 27.9492C24.8232 27.6348 24.1738 27.3418 23.0469 27.0898C22.8008 27.0352 22.5332 26.9824 22.2441 26.9316L21.9346 26.8809V26.625V20.2988ZM65.4443 36.0938V21.9492L67.4443 21.9688C67.4756 20.3398 68.8066 19.0293 70.4434 19.0293H76.4551C77.4717 19.0293 78.418 19.543 78.9717 20.3965L88.0947 34.459C89.3887 36.4551 87.9561 39.0918 85.5771 39.0918H70.4434C68.7998 39.0918 67.4668 37.7715 67.4443 36.1367H65.4443V36.0938ZM22.8516 43.3906C22.9932 44.2656 23.5498 45.1133 24.4961 45.7988C25.1865 46.2988 26.0605 46.6934 27.0557 46.918C27.6523 47.0527 28.292 47.127 28.9619 47.127C30.0771 47.127 31.1113 46.9219 32 46.5703C32.2207 46.4844 32.4326 46.3887 32.6348 46.2832C32.9199 46.1367 33.1846 45.9746 33.4268 45.7988C33.5811 45.6875 33.7246 45.5723 33.8574 45.4531C34.5635 44.8184 34.9756 44.084 35.0811 43.3281C35.0918 43.25 35.0986 43.1719 35.1035 43.0938L35.1074 42.9434H37.1074L37.1055 43.0938C37.1006 43.2422 37.0889 43.3887 37.0713 43.5332C37.0107 44.0273 36.876 44.498 36.6777 44.9434C36.3633 45.6484 35.8916 46.2852 35.3115 46.832C35.0898 47.0391 34.8525 47.2363 34.6025 47.418C34.1865 47.7188 33.7305 47.9863 33.2422 48.2129C32.2061 48.6973 31.0225 49.0059 29.7646 49.0977C29.5 49.1172 29.2324 49.127 28.9619 49.127C28.1172 49.127 27.2979 49.0293 26.5244 48.8477C25.3184 48.5645 24.2236 48.0723 23.3213 47.418C22.415 46.7598 21.6797 45.918 21.2451 44.9434C21.0469 44.5 20.9121 44.0273 20.8516 43.5332C20.8281 43.3398 20.8154 43.1426 20.8154 42.9434H22.8154C22.8154 43.0938 22.8271 43.2422 22.8516 43.3906ZM72.9678 47.418C72.0615 46.7598 71.3262 45.918 70.8916 44.9434C70.7051 44.5234 70.5742 44.0801 70.5088 43.6172C70.4844 43.4434 70.4697 43.2695 70.4639 43.0918L70.4619 42.9434H72.4619L72.4658 43.0918C72.4746 43.2578 72.498 43.4219 72.5371 43.5859C72.7246 44.3926 73.2676 45.1641 74.1426 45.7988C74.833 46.2988 75.707 46.6934 76.7021 46.918C77.2988 47.0527 77.9385 47.127 78.6084 47.127C80.1182 47.127 81.4775 46.75 82.5303 46.1484C82.7217 46.0391 82.9033 45.9219 83.0732 45.7988C83.2314 45.6836 83.3789 45.5645 83.5146 45.4434C84.2139 44.8105 84.623 44.0781 84.7275 43.3281C84.7383 43.25 84.7461 43.1719 84.75 43.0918L84.7539 42.9434H85.5771H86.7539V42.9961C86.75 43.2891 86.7207 43.5742 86.668 43.8516C86.5957 44.2305 86.4795 44.5957 86.3242 44.9434C86.0674 45.5195 85.7061 46.0488 85.2666 46.5215C85.0693 46.7324 84.8564 46.9336 84.6299 47.1211C84.5068 47.2227 84.3799 47.3223 84.249 47.418C83.8779 47.6855 83.4756 47.9277 83.0459 48.1387C81.7588 48.7695 80.2295 49.127 78.6084 49.127C77.6279 49.127 76.6816 48.9961 75.8018 48.7539C74.7412 48.4609 73.7773 48.0059 72.9678 47.418ZM40.4258 55.3809H43.7969V56.791H40.4258V60.4512H38.7432V51.7246H44.3809V53.1387H40.4258V55.3809ZM52.4277 60.4512H50.5615L48.9424 57.1875H47.4805V60.4512H45.7979V51.7246H49.0146C51.0811 51.7246 52.0869 52.8105 52.0869 54.4336C52.0869 55.6445 51.499 56.4238 50.6211 56.8633L52.4277 60.4512ZM49.0146 53.1387H47.4805V55.7773H48.9766C49.9434 55.7773 50.4209 55.3027 50.4209 54.4688C50.4209 53.6973 49.999 53.1387 49.0146 53.1387ZM55.1211 59.0371H59.1104V60.4512H53.4385V51.7246H59.0889V53.1387H55.1211V55.3809H58.543V56.791H55.1211V59.0371ZM62.2109 59.0371H66.2002V60.4512H60.5283V51.7246H66.1787V53.1387H62.2109V55.3809H65.6328V56.791H62.2109V59.0371ZM32.0625 68.2031H30.46C30.3877 67.4668 29.8682 67.0273 28.9521 67.0273C28.0566 67.0273 27.4434 67.4453 27.4434 68.0547C27.4434 68.6465 28.0869 68.9375 29.0928 69.2656L29.54 69.4102C31.1807 69.9473 32.1006 70.668 32.1006 72.0176C32.1006 73.5996 30.8311 74.584 28.9004 74.584C27.1152 74.584 25.585 73.668 25.5557 71.8086H27.2002C27.251 72.7031 27.9414 73.1641 28.9004 73.1641C29.9102 73.1641 30.4727 72.6484 30.4727 72.0312C30.4727 71.4219 29.9785 71.0586 28.6875 70.6621L28.2275 70.5312C26.8086 70.1055 25.8027 69.3125 25.8027 68.0547C25.8027 66.5898 27.1533 65.6055 28.96 65.6055C30.7754 65.6055 32.0322 66.6406 32.0625 68.2031ZM33.4404 65.7246H35.123V69.3809H38.7451V65.7246H40.4287V74.4512H38.7451V70.791H35.123V74.4512H33.4404V65.7246ZM41.8896 65.7246H43.5723V74.4512H41.8896V65.7246ZM51.3193 68.5664C51.3193 70.2617 50.3945 71.4004 48.2646 71.4004H46.7129V74.4512H45.0303V65.7246H48.2598C50.4336 65.7246 51.3193 66.8965 51.3193 68.5664ZM48.2598 67.1387H46.7129V70.002H48.2646C49.291 70.002 49.6533 69.3711 49.6533 68.5664C49.6533 67.7617 49.291 67.1387 48.2598 67.1387ZM58.96 68.5664C58.96 70.2617 58.0352 71.4004 55.9053 71.4004H54.3535V74.4512H52.6709V65.7246H55.9004C58.0742 65.7246 58.96 66.8965 58.96 68.5664ZM55.9004 67.1387H54.3535V70.002H55.9053C56.9316 70.002 57.2939 69.3711 57.2939 68.5664C57.2939 67.7617 56.9316 67.1387 55.9004 67.1387ZM60.3115 65.7246H61.9941V74.4512H60.3115V65.7246ZM68.7568 65.7246H70.4365V74.4512H68.7871L65.207 68.6133H65.1348V74.4512H63.4521V65.7246H65.1133L68.6846 71.5742H68.7568V65.7246ZM75.6719 69.8906H79.1367V71.1738C79.1367 73.2285 77.543 74.5703 75.54 74.5703C73.3203 74.5703 71.6748 72.9297 71.6748 70.0996C71.6748 67.2578 73.3076 65.6055 75.4932 65.6055C77.1846 65.6055 78.5576 66.5938 79.0938 68.3711L77.3936 68.5527C77.0869 67.5781 76.3408 67.125 75.4932 67.125C74.292 67.125 73.3584 68.043 73.3584 70.0996C73.3584 72.1582 74.3047 73.0488 75.54 73.0488C76.6523 73.0488 77.5 72.3203 77.5 71.1738H75.6719V69.8906Z" fill="#262E41"/>
</svg>
