<svg width="129" height="135" viewBox="0 0 129 135" fill="none" xmlns="http://www.w3.org/2000/svg">
<path fill-rule="evenodd" clip-rule="evenodd" d="M47.9093 13.0001L55.4055 0H72.7728L81.102 14.4445H97.2649L105.594 28.8891H120.316L129 43.9444L120.316 58.9997H103.32L95.8242 71.9998H80.269L72.7728 84.9999H57.2177L49.7214 98H32.3541L23.6704 82.9447L31.5831 69.2224L24.8129 57.4805H8.68367L0 42.4252L8.68367 27.3699H24.0644L32.3541 13.0001H47.9093ZM50.4756 14.3119L57.0713 2.8875H71.1126L78.1305 15.0539L71.107 27.2232H57.9211L50.4756 14.3119ZM47.2002 15.8876H34.0199L26.9965 28.0568L34.0143 40.2232H48.0556L54.6514 28.7988L47.2002 15.8876ZM57.9211 54.6678L50.4756 41.7566L57.0713 30.3321H71.1126L78.1305 42.4985L71.107 54.6678H57.9211ZM74.54 29.5013L81.5634 17.332H95.6047L102.623 29.4985L95.5991 41.6677H81.5578L74.54 29.5013ZM97.5914 43.9458L104.609 56.1122H118.651L125.674 43.943L118.656 31.7766H104.615L97.5914 43.9458ZM3.32602 42.4266L10.3495 30.2574H24.3908L31.313 42.2545L24.1938 54.593H10.3439L3.32602 42.4266ZM34.2113 43.3322H47.2002L54.6514 56.2434L48.0556 67.6679H34.0143L27.0921 55.6707L34.2113 43.3322ZM80.9781 69.1123L73.527 56.2011L80.1227 44.7767H94.164L101.182 56.9431L94.1584 69.1123H80.9781ZM57.0713 57.7768H70.2516L77.7028 70.688L71.107 82.1124H57.9268L50.4925 69.2224L57.0713 57.7768ZM47.2002 70.7768L54.6514 83.6881L48.0556 95.1125H34.0143L26.9965 82.9461L34.0199 70.7768H47.2002Z" transform="translate(0 19)" fill="white"/>
</svg>
