<svg width="32" height="32" viewBox="0 0 32 32" fill="none" xmlns="http://www.w3.org/2000/svg">
<path d="M23.169 0H8.83065C3.96143 0 0 3.96083 0 8.82906V23.1645C0 28.0329 3.96143 31.9936 8.83065 31.9936H23.169C28.0386 31.9936 32 28.0327 32 23.1645V8.82906C32.0002 3.96083 28.0386 0 23.169 0ZM29.161 23.1645C29.161 26.4677 26.473 29.1549 23.1692 29.1549H8.83065C5.52697 29.1551 2.8392 26.4677 2.8392 23.1645V8.82906C2.8392 5.52604 5.52697 2.83862 8.83065 2.83862H23.169C26.4728 2.83862 29.1608 5.52604 29.1608 8.82906V23.1645H29.161Z" fill="white"/>
<path d="M8.24559 2.31008e-07C3.6989 2.31008e-07 -2.83041e-07 3.69816 -2.83041e-07 8.24393C-2.83041e-07 12.7895 3.6989 16.4875 8.24559 16.4875C12.7923 16.4875 16.4912 12.7895 16.4912 8.24393C16.4912 3.69816 12.7923 2.31008e-07 8.24559 2.31008e-07ZM8.24559 13.6487C5.26462 13.6487 2.83919 11.2241 2.83919 8.24374C2.83919 5.26319 5.26444 2.83843 8.24559 2.83843C11.2267 2.83843 13.652 5.26319 13.652 8.24374C13.652 11.2241 11.2266 13.6487 8.24559 13.6487Z" transform="translate(7.75391 7.75293)" fill="white"/>
<path d="M2.08208 -1.03953e-07C1.53506 -1.03953e-07 0.997693 0.221413 0.611374 0.609358C0.223161 0.995411 -4.50556e-07 1.53286 -4.50556e-07 2.08166C-4.50556e-07 2.62875 0.22335 3.16601 0.611374 3.55396C0.997504 3.94001 1.53506 4.16331 2.08208 4.16331C2.63099 4.16331 3.16665 3.94001 3.55467 3.55396C3.9427 3.16601 4.16415 2.62856 4.16415 2.08166C4.16415 1.53286 3.9427 0.995411 3.55467 0.609358C3.16854 0.221413 2.63099 -1.03953e-07 2.08208 -1.03953e-07Z" transform="translate(22.5078 5.34668)" fill="white"/>
</svg>
