<svg width="140" height="140" viewBox="0 0 140 140" fill="none" xmlns="http://www.w3.org/2000/svg">
<path fill-rule="evenodd" clip-rule="evenodd" d="M97.6992 0.46875L94.3828 14.2041L115.594 20.502L115.305 21.498L116.117 21.1172L125.34 40.7451L139.289 36.04L139.93 37.9355L125.547 42.7852L116.84 62.8828L116.141 62.5732L116.5 63.3447L96.1953 72.8408L95.9727 72.3613L95.8789 72.6846L75.1406 66.5273L65.957 86.623L65.6953 86.501L75.5547 95.6416L74.1953 97.1084L64.0977 87.7451L45.1016 96.1367L44.8906 95.6582L44.793 95.9746L23.3672 89.1113L23.6016 88.3545L22.8516 88.6875L13.6797 68.0303L14.4492 67.6895L0 64.3203L0.453125 62.373L14.3867 65.6221L23.0273 46.7139L23.5469 46.9561L23.2734 46.3359L43.7734 37.2773L44.0352 37.8682L44.1914 37.3623L64.4609 43.8555L73.0664 23.9014L73.5898 24.1328L73.3047 23.5186L92.4727 14.5527L92.2539 14.5L95.7539 0L97.6992 0.46875ZM125.289 42.0234L125.219 41.8135L125.023 41.9053L125.289 42.0234ZM14.5547 67.5859L14.543 67.6475L14.6172 67.6143L14.5547 67.5859ZM93.8281 16.127L74.7461 25.0518L66.168 44.9414L75.3594 64.5059L96.1172 70.6689L115.145 61.7715L123.695 41.9482L114.434 22.2441L93.8281 16.127ZM64.4219 45.9424L43.9531 39.3857L24.6836 47.8975L15.6797 67.6035L24.4492 87.3574L45.0703 93.9648L64.2812 85.4756L73.2539 65.8418L64.4219 45.9424Z" transform="translate(0 21)" fill="black"/>
</svg>
