<svg width="689" height="303" viewBox="0 0 689 303" fill="none" xmlns="http://www.w3.org/2000/svg">
<g clip-path="url(#clip0)">
<path d="M74.7878 0C30.3878 0 0 37.2 0 82.4C0 128.4 30.3878 165.2 75.1878 165.2C119.188 165.2 148.3 127.2 148.3 82.4C148.3 35.6 120.388 0 74.7878 0ZM74.3878 9.2C90.3878 9.2 92.7003 12.4 99.1003 22C104.7 30.4 105.5 36 105.5 82C105.5 122.8 104.7 130 101.1 137.6C94.7003 149.2 91.5878 156 74.7878 156C59.5878 156 55.6 151.6 49.2 142C43.2 133.2 42.8 128 42.8 82.4C42.8 40.4 43.2 34 47.2 26C53.2 14.8 58.3878 9.2 74.3878 9.2Z" transform="translate(184.199 137.8)" fill="#262E41"/>
<path d="M0 57.2L38.8 0H68.8C71.2 0 72.4 0.799988 72.4 3.2C72.4 4.39999 71.6 5.6 70.4 6.80001L3.60001 61.2L0 57.2Z" transform="translate(240.188 52.5996)" fill="#262E41"/>
<path d="M0.000181722 242.504L0 250H8.59358V242.504V14.6177L161.407 250H170V7.49624V0H161.407V7.49624V176.537C149.451 156.297 148.33 154.423 119.56 109.82L47.077 0H0.000181722V7.49624V242.504Z" transform="translate(0 53)" fill="#262E41"/>
<path d="M60.4 0H54C44.4 28.4 24.4 61.2 0 63.6V68.4004H24.7686L24.4 170.4C24.4 195.2 25.2 199.6 32.4 208C40 217.6 52 222.4 66.4 222.4H84.2687V216.4C77.7687 214.9 66.4 207.2 63.6 202.4C60.8 198 60.4 194.4 60.4 182.8V68.4004H74.9031V63.4004H60.4V0Z" transform="translate(333.23 80.5)" fill="#262E41"/>
<path d="M60.4 0H54C44.4 28.4 24.4 60.6 0 63V68H24.5L24.4 170.4C24.4 195.2 25.2 199.6 32.4 208C40 217.6 52 222.4 66.4 222.4H84.2687V216.4C77.7687 214.9 66.4 207.2 63.6 202.4C60.8 198 60.4 194.4 60.4 182.8V68H74.9031V63H60.4V0Z" transform="translate(415 81)" fill="#262E41"/>
<path d="M129.525 135.9C144.58 132.393 158.677 120.557 163.843 115.077C152.772 116.173 142.588 110.255 132.846 99.7333C120.668 86.5816 120.668 72.334 127.31 62.4703C132.624 54.5793 151.665 59.1824 160.522 62.4703L169.378 58.0864C168.271 53.3372 143.916 47.419 129.525 49.3187C108.491 52.0951 99.6342 60.2784 100.741 72.334C92.6229 63.5663 73.7293 43.4004 63.1017 32.8791C52.474 22.3578 18.8198 6.57582 3.32114 0L7.74933 20.8234L44.2819 50.4146L7.74933 38.359L13.2846 59.1824L58.6735 72.334L13.2846 76.7179L17.7128 93.1575L63.1017 98.6373L28.7832 110.693L44.2819 120.557L0 150.148L28.7832 153.436L63.1017 129.324L49.8171 174.259L86.3497 135.9C94.468 137.362 114.469 139.407 129.525 135.9Z" transform="translate(519 42.7412)" fill="#262E41"/>
<path d="M0 2.19194L2.16356 12.1368C4.87087 11.2438 5.58129 10.7485 7.35257 8.11822C9.12385 5.48789 8.11835 1.46129 7.74933 0L0 2.19194Z" transform="translate(680.633 112.885)" fill="#262E41"/>
<path d="M12.8423 1.42997L16.1635 13.4856C9.52022 15.6779 -3.02293 8.00571 0.665593 3.62184C5.09263 -1.63976 10.2592 -0.0313187 12.8423 1.42997Z" transform="translate(656.719 113.646)" fill="#262E41"/>
<path d="M22.8059 24.4456L18.3777 20.0618C18.7467 18.6005 20.149 15.8971 22.8059 16.7739C25.4628 17.6506 23.9129 22.2537 22.8059 24.4456Z" transform="translate(656.719 113.646)" fill="#262E41"/>
<path d="M28.7832 89.8696C21.6981 91.6231 16.2367 96.4454 14.3916 98.6373L0 78.9099H21.0339L7.74933 59.1824H43.1748L16.6057 41.6469L25.4621 25.2073L55.3524 44.9348L34.3185 10.9597L43.1748 0L71.9581 35.071L48.7101 85.4857C45.0199 86.2163 35.8683 88.116 28.7832 89.8696Z" transform="translate(604.246)" fill="#262E41"/>
</g>
<defs>
<clipPath id="clip0">
<rect width="689" height="303" fill="white"/>
</clipPath>
</defs>
</svg>
