<svg width="171" height="217" viewBox="0 0 171 217" fill="none" xmlns="http://www.w3.org/2000/svg">
<path d="M129.525 135.9C144.58 132.393 158.677 120.557 163.843 115.077C152.772 116.173 142.588 110.255 132.846 99.7333C120.668 86.5816 120.668 72.334 127.31 62.4703C132.624 54.5793 151.665 59.1824 160.522 62.4703L169.378 58.0864C168.271 53.3372 143.916 47.419 129.525 49.3187C108.491 52.0951 99.6342 60.2784 100.741 72.334C92.6229 63.5663 73.7293 43.4004 63.1017 32.8791C52.474 22.3578 18.8198 6.57582 3.32114 0L7.74933 20.8234L44.2819 50.4146L7.74933 38.359L13.2846 59.1824L58.6735 72.334L13.2846 76.7179L17.7128 93.1575L63.1017 98.6373L28.7832 110.693L44.2819 120.557L0 150.148L28.7832 153.436L63.1017 129.324L49.8171 174.259L86.3497 135.9C94.468 137.362 114.469 139.407 129.525 135.9Z" transform="translate(0 42.7412)" fill="#262E41"/>
<path d="M0 2.19194L2.16356 12.1368C4.87087 11.2438 5.58129 10.7485 7.35257 8.11822C9.12385 5.48789 8.11835 1.46129 7.74933 0L0 2.19194Z" transform="translate(161.633 112.885)" fill="#262E41"/>
<path d="M12.8423 1.42997L16.1635 13.4856C9.52022 15.6779 -3.02293 8.00571 0.665593 3.62184C5.09263 -1.63976 10.2592 -0.0313187 12.8423 1.42997Z" transform="translate(137.719 113.646)" fill="#262E41"/>
<path d="M22.8059 24.4456L18.3777 20.0618C18.7467 18.6005 20.149 15.8971 22.8059 16.7739C25.4628 17.6506 23.9129 22.2537 22.8059 24.4456Z" transform="translate(137.719 113.646)" fill="#262E41"/>
<path d="M28.7832 89.8696C21.6981 91.6231 16.2367 96.4454 14.3916 98.6373L0 78.9099H21.0339L7.74933 59.1824H43.1748L16.6057 41.6469L25.4621 25.2073L55.3524 44.9348L34.3185 10.9597L43.1748 0L71.9581 35.071L48.7101 85.4857C45.0199 86.2163 35.8683 88.116 28.7832 89.8696Z" transform="translate(85.2461)" fill="#262E41"/>
</svg>
