<svg width="40" height="40" viewBox="0 0 40 40" fill="none" xmlns="http://www.w3.org/2000/svg">
<g clip-path="url(#clip0)">
<path fill-rule="evenodd" clip-rule="evenodd" d="M10.3633 16.7861L10.9219 17.126L11.5156 16.085L19.8711 2.44141L28.8242 17.126L29.5273 16.6973L30.2344 17.126L37.8867 4.57227V24.1768H2.15234V4.57227L9.21094 16.085L9.80469 17.126L10.3633 16.7861ZM0.152344 1.29102V30.459H1.15234V31.0137H38.5898V30.0098H39.8867V1.29102L40.0391 1.04102L39.8867 0.948242V0.520508H39.1836L38.3281 0L38.0117 0.520508H37.8867V0.724609L29.5312 14.4346L20.7305 0L19.8711 0.521484L19.0156 0L10.3633 14.1943L1.71094 0L0.152344 0.969727L0 1.04102L0.152344 1.29102ZM2.15234 26.1768V29.0137H37.8867V26.1768H2.15234Z" transform="translate(0 4)" fill="black"/>
</g>
<defs>
<clipPath id="clip0">
<rect width="40" height="40" fill="white"/>
</clipPath>
</defs>
</svg>
