<svg width="40" height="40" viewBox="0 0 40 40" fill="none" xmlns="http://www.w3.org/2000/svg">
<g clip-path="url(#clip0)">
<path fill-rule="evenodd" clip-rule="evenodd" d="M11.7461 5.84082C14.4883 4.66211 16.7617 2.8584 19.3828 0L20.1172 0.673828L20.8516 0C23.4727 2.8584 25.7461 4.66211 28.4883 5.84082C31.2461 7.02832 34.5586 7.61719 39.3203 7.91113L39.2539 8.96289L39.9805 9.11719C38.0117 18.3809 35.8594 24.5498 32.8672 29.2686C29.8633 34.0078 26.0547 37.209 20.9258 40.6182L20.3711 39.7852H19.8633L19.3086 40.6182C14.1836 37.2119 10.3164 34.0137 7.24609 29.2764C4.1875 24.5566 1.97266 18.3867 0 9.11719L0.976562 8.90918L0.914062 7.91113C5.67578 7.61719 8.98828 7.02832 11.7461 5.84082ZM21.1172 38.0723C25.4609 35.0693 28.6328 32.209 31.1797 28.1973C33.8672 23.9561 35.8984 18.3584 37.7852 9.80859C33.6445 9.48047 30.4648 8.86816 27.6953 7.67871C25.2695 6.63477 23.2109 5.16797 21.1172 3.14453V38.0723ZM19.1172 3.14453V38.0742C14.7539 35.0674 11.5234 32.2041 8.92578 28.1895C6.17969 23.9521 4.08984 18.3604 2.19922 9.82812C6.46094 9.50488 9.71484 8.89258 12.5391 7.67871C14.9648 6.63477 17.0234 5.16797 19.1172 3.14453Z" transform="translate(0.601562 -0.276367)" fill="black"/>
</g>
<defs>
<clipPath id="clip0">
<rect width="40" height="40" fill="white"/>
</clipPath>
</defs>
</svg>
