<svg xmlns="http://www.w3.org/2000/svg" width="750" height="750" viewBox="0 0 750 750"><g fill="#fff"><circle cx="73.826" cy="292.167" r="1.674"/><circle cx="295.326" cy="292.167" r="1.674"/><circle cx="128.5" cy="609.5" r="1.674"/><circle cx="477.93" cy="345.019" r="1.674"/><circle cx="627.078" cy="543.256" r="1.674"/><circle cx="532.604" cy="662.352" r="1.674"/><circle cx="350" cy="609.5" r="1.674"/><circle cx="646.826" cy="360.167" r="1.674"/><circle cx="661.576" cy="678.25" r="1.674"/><circle cx="697.4" cy="499.584" r="1.674"/><circle cx="422.159" cy="66.667" r="1.674"/><circle cx="459.159" cy="149.667" r="1.674"/></g><g fill="#fff"><circle cx="418.826" cy="309.167" r="2.5"/><circle cx="287.5" cy="191" r="2.5"/><circle cx="80.159" cy="25.667" r="2.5"/><circle cx="515.963" cy="140.501" r="2.5"/><circle cx="458.326" cy="178.334" r="2.5"/><circle cx="296.826" cy="395.167" r="2.5"/><circle cx="94.159" cy="436.334" r="2.5"/><circle cx="65.833" cy="191" r="2.5"/><circle cx="134.586" cy="271.942" r="2.5"/><circle cx="256.097" cy="706.574" r="2.5"/><circle cx="498.264" cy="489.186" r="2.5"/><circle cx="743.5" cy="15" r="2.5"/><circle cx="520" cy="81" r="2.5"/><circle cx="301.927" cy="25.001" r="2.5"/><circle cx="163.321" cy="97.942" r="2.5"/><circle cx="32.826" cy="64.667" r="2.5"/><circle cx="233.826" cy="293.667" r="2.5"/><circle cx="189.26" cy="589.275" r="2.5"/><circle cx="63.606" cy="643.577" r="2.5"/><circle cx="288.5" cy="611" r="2.5"/><circle cx="639" cy="259" r="2.5"/><circle cx="648.326" cy="463.167" r="2.5"/><circle cx="653.427" cy="93.001" r="2.5"/><circle cx="585.326" cy="361.667" r="2.5"/></g></svg>