<svg width="67" height="82" viewBox="0 0 67 82" fill="none" xmlns="http://www.w3.org/2000/svg">
<path fill-rule="evenodd" clip-rule="evenodd" d="M60.9814 30.9336C60.9814 46.9102 48.002 59.8672 31.9814 59.8672C15.9619 59.8672 2.98242 46.9102 2.98242 30.9336C2.98242 14.959 15.9619 2 31.9814 2C48.002 2 60.9814 14.959 60.9814 30.9336ZM62.9814 30.9336C62.9814 39.4531 59.5293 47.1699 53.9453 52.7637L54.5293 52.4277L64.6133 69.9434L65.4766 71.4434H63.7471H54.4121L49.2021 79.1035L48.2305 80.5312L47.4746 78.9805L38.7627 61.125C36.5801 61.6113 34.3105 61.8672 31.9814 61.8672C30.1133 61.8672 28.2822 61.7031 26.5049 61.3867L26.8643 61.5605L18.002 79.7246L17.2461 81.2754L16.2744 79.8477L11.0635 72.1855H1.72949H0L0.863281 70.6855L10.7646 53.4863C4.74316 47.8438 0.982422 39.8262 0.982422 30.9336C0.982422 13.8496 14.8613 0 31.9814 0C49.1025 0 62.9814 13.8496 62.9814 30.9336ZM40.7412 60.6152L48.5176 76.5527L53.209 69.6543L53.6631 69.9629V69.4434H62.0176L52.96 53.709C49.5146 56.8711 45.3516 59.2637 40.7412 60.6152ZM12.2979 54.832L3.45898 70.1855H11.8135V70.707L12.2676 70.3984L16.959 77.2969L24.8848 61.0527C20.1875 59.9551 15.9023 57.791 12.2979 54.832ZM28.418 16.3398C29.1904 15.6504 30.21 15.1035 31.9707 15.1035C34.1436 15.1035 35.9668 16.4336 35.9668 19.3164C35.9668 21.8496 34.2773 23.6211 32.0225 23.6211C29.9629 23.6211 28.7783 22.3438 28.459 20.3359H25.3184C25.5654 24.1777 28.2217 26.2891 31.9189 26.2891C36.5635 26.2891 39.0664 23.2402 39.0664 19.3066C39.0664 15.1973 36.3682 12.4785 32.4551 12.4785C30.9307 12.4785 29.6025 13.1074 28.9531 13.7031H28.8398L29.5918 7.82422H38.2119V4.9082H26.832L25.5957 15.6914L28.418 16.3398ZM21.7148 28.7266H23.2529L25.0957 31.9082H25.1807L27.0273 28.7266H28.5654L25.8418 33.1582V36H24.4385V33.1582L21.7148 28.7266ZM32.8418 34.5508C32.6426 35.3008 31.9326 36.1035 30.5156 36.1035C28.8789 36.1035 27.874 35.0488 27.874 33.3438C27.874 31.6777 28.8252 30.4746 30.459 30.4746C31.8438 30.4746 32.8984 31.3438 32.8984 33.0957V33.6738H29.2051C29.2939 34.4844 29.7207 34.9746 30.5049 34.9746C31.1621 34.9746 31.46 34.623 31.6064 34.2168L32.8418 34.5508ZM31.5918 32.7266C31.5918 32.084 31.1729 31.5938 30.4482 31.5938C29.8164 31.5938 29.3896 32.0078 29.2441 32.7266H31.5918ZM38.2568 36H36.9287V35.3848H36.8652C36.6768 35.7344 36.2363 36.1094 35.4697 36.1094C34.5 36.1094 33.6943 35.5176 33.6943 34.4629C33.6943 33.4082 34.5068 32.8789 35.8887 32.75L36.0371 32.7344C36.4688 32.6914 36.8691 32.6504 36.8691 32.3926V32.3105C36.8691 31.8242 36.5596 31.5508 36.0801 31.5508C35.5723 31.5508 35.2002 31.8418 35.1006 32.2109L33.8037 32.0234C34.0566 31.0176 34.9551 30.4746 36.1162 30.4746C37.1992 30.4746 38.2568 30.9531 38.2568 32.3379V36ZM35.7998 35.0664C36.4072 35.0664 36.8691 34.6582 36.8691 34.1816V33.4609C36.7656 33.5742 36.2686 33.6465 36.0205 33.6777C35.3662 33.752 35.0361 33.9727 35.0361 34.4453C35.0361 34.8359 35.3457 35.0664 35.7998 35.0664ZM42.124 30.4707C42.4072 30.4707 42.7061 30.5488 42.876 30.6484L42.4463 31.8457C42.3721 31.8027 42.1631 31.7324 41.9385 31.7324C41.2852 31.7324 40.835 32.3027 40.8271 32.9062V36H39.4492V30.5449H40.7988V31.3203H40.877C41.0332 30.7656 41.5908 30.4707 42.124 30.4707ZM10.5488 40.7266H11.8486L13.166 45.9434H13.2266L14.583 40.7266H15.8867L17.2393 45.9551H17.3037L18.6172 40.7266H19.9209L18.0273 48H16.5967L15.2617 43.0469H15.2051L13.8691 48H12.4385L10.5488 40.7266ZM24.6289 48H23.3008V47.3848H23.2373C23.0488 47.7344 22.6084 48.1094 21.8418 48.1094C20.8721 48.1094 20.0664 47.5176 20.0664 46.4629C20.0664 45.4082 20.8789 44.8789 22.2607 44.75L22.4092 44.7344C22.8408 44.6914 23.2412 44.6504 23.2412 44.3926V44.3105C23.2412 43.8242 22.9316 43.5508 22.4521 43.5508C21.9443 43.5508 21.5723 43.8418 21.4727 44.2109L20.1758 44.0234C20.4287 43.0176 21.3271 42.4746 22.4883 42.4746C23.5713 42.4746 24.6289 42.9531 24.6289 44.3379V48ZM22.1719 47.0664C22.7793 47.0664 23.2412 46.6582 23.2412 46.1816V45.4609C23.1377 45.5742 22.6406 45.6465 22.3926 45.6777C21.7383 45.752 21.4082 45.9727 21.4082 46.4453C21.4082 46.8359 21.7178 47.0664 22.1719 47.0664ZM28.4961 42.4707C28.7793 42.4707 29.0781 42.5488 29.248 42.6484L28.8184 43.8457C28.7441 43.8027 28.5352 43.7324 28.3105 43.7324C27.6572 43.7324 27.207 44.3027 27.1992 44.9062V48H25.8213V42.5449H27.1709V43.3203H27.249C27.4053 42.7656 27.9629 42.4707 28.4961 42.4707ZM32.6855 42.4707C32.9688 42.4707 33.2676 42.5488 33.4375 42.6484L33.0078 43.8457C32.9336 43.8027 32.7246 43.7324 32.5 43.7324C31.8467 43.7324 31.3965 44.3027 31.3887 44.9062V48H30.0107V42.5449H31.3604V43.3203H31.4385C31.5947 42.7656 32.1523 42.4707 32.6855 42.4707ZM38.4277 48H37.0996V47.3848H37.0361C36.8477 47.7344 36.4072 48.1094 35.6406 48.1094C34.6709 48.1094 33.8652 47.5176 33.8652 46.4629C33.8652 45.4082 34.6777 44.8789 36.0596 44.75L36.208 44.7344C36.6396 44.6914 37.04 44.6504 37.04 44.3926V44.3105C37.04 43.8242 36.7305 43.5508 36.251 43.5508C35.7432 43.5508 35.3711 43.8418 35.2715 44.2109L33.9746 44.0234C34.2275 43.0176 35.126 42.4746 36.2871 42.4746C37.3701 42.4746 38.4277 42.9531 38.4277 44.3379V48ZM35.9707 47.0664C36.5781 47.0664 37.04 46.6582 37.04 46.1816V45.4609C36.9365 45.5742 36.4395 45.6465 36.1914 45.6777C35.5371 45.752 35.207 45.9727 35.207 46.4453C35.207 46.8359 35.5166 47.0664 35.9707 47.0664ZM42 43.6113C41.3857 43.6113 40.998 44.1504 40.998 45V48H39.6201V42.5449H40.9131V43.2383H40.9697C41.2646 42.791 41.7939 42.4746 42.4824 42.4746C43.4375 42.4746 44.2939 43.0566 44.2939 44.5723V48H42.9121V44.6309C42.9121 43.9805 42.5215 43.6113 42 43.6113ZM47.0439 42.5449H47.9961V43.5684H47.0439V46.3301C47.0439 46.8379 47.293 46.9141 47.5947 46.9141C47.7227 46.9141 47.8535 46.8965 47.9463 46.8711L48.1631 47.9316C48.0596 47.9746 47.7148 48.0703 47.2109 48.0703C46.3838 48.0703 45.666 47.5 45.666 46.541V43.5684H44.9883V42.5449H45.666V41.3809H47.0439V42.5449ZM49.4199 48.9023C50.0908 49.0938 50.3008 48.877 50.5459 48.2305L50.6484 47.957L48.667 42.5449H50.0977L51.2988 46.1387H51.3584L52.5557 42.5449H53.9863L51.6816 48.8125C51.4473 49.4492 50.9082 50.127 49.8633 50.127C49.5615 50.127 49.3203 50.0703 49.1074 49.9883L49.4199 48.9023Z" transform="translate(0.761719)" fill="#262E41"/>
</svg>
